<svg width="19" height="19" viewBox="0 0 19 19" fill="none" xmlns="http://www.w3.org/2000/svg">
<path d="M1.06885 4L17.0688 4M13.0688 18H5.06885C3.96428 18 3.06885 17.1046 3.06885 16V5C3.06885 4.44772 3.51656 4 4.06885 4H14.0688C14.6211 4 15.0688 4.44772 15.0688 5V16C15.0688 17.1046 14.1734 18 13.0688 18ZM7.06885 4H11.0688C11.6211 4 12.0688 3.55229 12.0688 3V2C12.0688 1.44772 11.6211 1 11.0688 1H7.06885C6.51656 1 6.06885 1.44772 6.06885 2V3C6.06885 3.55229 6.51656 4 7.06885 4Z" stroke="#49454F" stroke-width="2" stroke-linecap="round"/>
</svg>
