<svg width="22" height="22" viewBox="0 0 22 22" fill="none" xmlns="http://www.w3.org/2000/svg">
<path d="M1.3999 0.992676C0.847618 0.992676 0.399902 1.44039 0.399902 1.99268C0.399902 2.54496 0.847618 2.99268 1.3999 2.99268V0.992676ZM3.69244 1.99268L4.65767 1.73126C4.53961 1.29536 4.14405 0.992676 3.69244 0.992676V1.99268ZM7.41781 15.7479L6.45259 16.0093C6.58285 16.4903 7.04737 16.802 7.54185 16.7402L7.41781 15.7479ZM18.8805 14.3151L19.0045 15.3073C19.4292 15.2543 19.773 14.9368 19.8598 14.5177L18.8805 14.3151ZM20.5999 6.00462L21.5792 6.20722C21.6401 5.91271 21.5652 5.60641 21.3753 5.37319C21.1854 5.13998 20.9007 5.00462 20.5999 5.00462V6.00462ZM4.77901 6.00462L3.81378 6.26603L4.77901 6.00462ZM1.3999 2.99268H3.69244V0.992676H1.3999V2.99268ZM7.54185 16.7402L19.0045 15.3073L18.7565 13.3228L7.29378 14.7556L7.54185 16.7402ZM19.8598 14.5177L21.5792 6.20722L19.6206 5.80201L17.9012 14.1125L19.8598 14.5177ZM2.72721 2.25409L3.81378 6.26603L5.74423 5.7432L4.65767 1.73126L2.72721 2.25409ZM3.81378 6.26603L6.45259 16.0093L8.38304 15.4865L5.74423 5.7432L3.81378 6.26603ZM20.5999 5.00462H4.77901V7.00462H20.5999V5.00462ZM9.9999 19.4999C9.9999 19.7761 9.77604 19.9999 9.4999 19.9999V21.9999C10.8806 21.9999 11.9999 20.8807 11.9999 19.4999H9.9999ZM9.4999 19.9999C9.22376 19.9999 8.9999 19.7761 8.9999 19.4999H6.9999C6.9999 20.8807 8.11919 21.9999 9.4999 21.9999V19.9999ZM8.9999 19.4999C8.9999 19.2238 9.22376 18.9999 9.4999 18.9999V16.9999C8.11919 16.9999 6.9999 18.1192 6.9999 19.4999H8.9999ZM9.4999 18.9999C9.77604 18.9999 9.9999 19.2238 9.9999 19.4999H11.9999C11.9999 18.1192 10.8806 16.9999 9.4999 16.9999V18.9999ZM17.9999 19.4999C17.9999 19.7761 17.776 19.9999 17.4999 19.9999V21.9999C18.8806 21.9999 19.9999 20.8807 19.9999 19.4999H17.9999ZM17.4999 19.9999C17.2238 19.9999 16.9999 19.7761 16.9999 19.4999H14.9999C14.9999 20.8807 16.1192 21.9999 17.4999 21.9999V19.9999ZM16.9999 19.4999C16.9999 19.2238 17.2238 18.9999 17.4999 18.9999V16.9999C16.1192 16.9999 14.9999 18.1192 14.9999 19.4999H16.9999ZM17.4999 18.9999C17.776 18.9999 17.9999 19.2238 17.9999 19.4999H19.9999C19.9999 18.1192 18.8806 16.9999 17.4999 16.9999V18.9999Z" fill="white"/>
</svg>
