<svg width="70" height="70" viewBox="0 0 70 70" fill="none" xmlns="http://www.w3.org/2000/svg">
<path d="M49.6738 27.7988C50.0845 27.388 50.3153 26.8309 50.3153 26.25C50.3153 25.6691 50.0845 25.112 49.6738 24.7012C49.263 24.2905 48.7059 24.0597 48.125 24.0597C47.5441 24.0597 46.987 24.2905 46.5762 24.7012L35 36.2819L29.9863 31.2637C29.7829 31.0604 29.5414 30.899 29.2757 30.789C29.0099 30.6789 28.7251 30.6222 28.4375 30.6222C28.1499 30.6222 27.8651 30.6789 27.5993 30.789C27.3336 30.899 27.0921 31.0604 26.8887 31.2637C26.6854 31.4671 26.524 31.7086 26.414 31.9743C26.3039 32.2401 26.2472 32.5249 26.2472 32.8125C26.2472 33.1001 26.3039 33.3849 26.414 33.6507C26.524 33.9164 26.6854 34.1579 26.8887 34.3613L33.4512 40.9238C33.6544 41.1275 33.8958 41.2891 34.1616 41.3994C34.4274 41.5096 34.7123 41.5664 35 41.5664C35.2877 41.5664 35.5726 41.5096 35.8384 41.3994C36.1042 41.2891 36.3456 41.1275 36.5488 40.9238L49.6738 27.7988Z" fill="white"/>
<path d="M2.1875 4.375C1.60734 4.375 1.05094 4.60547 0.640704 5.0157C0.230468 5.42594 0 5.98234 0 6.5625C0 7.14266 0.230468 7.69906 0.640704 8.1093C1.05094 8.51953 1.60734 8.75 2.1875 8.75H7.04375L8.79812 15.7806L15.3519 50.715C15.4457 51.2163 15.7117 51.669 16.104 51.9949C16.4962 52.3209 16.99 52.4995 17.5 52.5H21.875C19.5544 52.5 17.3288 53.4219 15.6878 55.0628C14.0469 56.7038 13.125 58.9294 13.125 61.25C13.125 63.5706 14.0469 65.7962 15.6878 67.4372C17.3288 69.0781 19.5544 70 21.875 70C24.1956 70 26.4212 69.0781 28.0622 67.4372C29.7031 65.7962 30.625 63.5706 30.625 61.25C30.625 58.9294 29.7031 56.7038 28.0622 55.0628C26.4212 53.4219 24.1956 52.5 21.875 52.5H52.5C50.1794 52.5 47.9538 53.4219 46.3128 55.0628C44.6719 56.7038 43.75 58.9294 43.75 61.25C43.75 63.5706 44.6719 65.7962 46.3128 67.4372C47.9538 69.0781 50.1794 70 52.5 70C54.8206 70 57.0462 69.0781 58.6872 67.4372C60.3281 65.7962 61.25 63.5706 61.25 61.25C61.25 58.9294 60.3281 56.7038 58.6872 55.0628C57.0462 53.4219 54.8206 52.5 52.5 52.5H56.875C57.385 52.4995 57.8788 52.3209 58.271 51.9949C58.6633 51.669 58.9293 51.2163 59.0231 50.715L65.5856 15.715C65.6447 15.3993 65.6336 15.0744 65.553 14.7635C65.4724 14.4526 65.3243 14.1632 65.1192 13.916C64.9142 13.6688 64.6572 13.4697 64.3665 13.333C64.0759 13.1963 63.7587 13.1253 63.4375 13.125H12.6438L10.8719 6.03312C10.7538 5.55968 10.4808 5.13931 10.0963 4.83886C9.71184 4.53841 9.23795 4.37513 8.75 4.375H2.1875ZM19.3156 48.125L13.5712 17.5H60.8037L55.0594 48.125H19.3156ZM26.25 61.25C26.25 62.4103 25.7891 63.5231 24.9686 64.3436C24.1481 65.1641 23.0353 65.625 21.875 65.625C20.7147 65.625 19.6019 65.1641 18.7814 64.3436C17.9609 63.5231 17.5 62.4103 17.5 61.25C17.5 60.0897 17.9609 58.9769 18.7814 58.1564C19.6019 57.3359 20.7147 56.875 21.875 56.875C23.0353 56.875 24.1481 57.3359 24.9686 58.1564C25.7891 58.9769 26.25 60.0897 26.25 61.25ZM56.875 61.25C56.875 62.4103 56.4141 63.5231 55.5936 64.3436C54.7731 65.1641 53.6603 65.625 52.5 65.625C51.3397 65.625 50.2269 65.1641 49.4064 64.3436C48.5859 63.5231 48.125 62.4103 48.125 61.25C48.125 60.0897 48.5859 58.9769 49.4064 58.1564C50.2269 57.3359 51.3397 56.875 52.5 56.875C53.6603 56.875 54.7731 57.3359 55.5936 58.1564C56.4141 58.9769 56.875 60.0897 56.875 61.25Z" fill="white"/>
</svg>
