<svg width="96" height="66" viewBox="0 0 96 66" fill="none" xmlns="http://www.w3.org/2000/svg">
<path d="M19.9442 65.912C17.0353 63.6595 15.9773 60.2569 17.0028 56.7417C17.7417 54.2085 19.2192 52.1091 20.8601 50.0931C21.3015 49.5507 21.7395 49.0046 22.0086 48.3517C22.5208 47.1085 22.2278 46.033 21.1663 45.1978C19.9746 44.2603 18.5223 44.0581 17.0966 43.774C14.3009 43.217 11.557 42.4876 9.06962 41.0647C5.47814 39.0103 3.36429 35.934 2.92581 31.8572C2.317 26.1969 4.49781 21.7011 9.15147 18.4196C11.8266 16.5332 14.9523 15.6186 18.1264 14.8856C21.0024 14.2214 23.922 13.7455 26.7647 12.9372C28.4684 12.4528 30.0714 11.7605 31.5674 10.8115C34.013 9.26008 34.6674 6.98355 34.3265 4.30334C34.1468 2.89119 33.6988 1.55291 33.0275 0.289959C32.983 0.206292 32.9536 0.118799 33.059 0C33.4063 0.0654707 33.5396 0.395612 33.7181 0.632131C35.8503 3.4564 36.7043 6.58005 35.8559 10.0534C35.3957 11.9378 34.2043 13.3516 32.6621 14.5001C30.5781 16.0521 28.2137 17.0761 25.8172 18.045C22.5157 19.3798 19.129 20.532 16.1165 22.4858C14.0423 23.8311 12.5028 25.5751 11.7951 27.958C10.4283 32.5603 12.1995 36.0841 16.7962 37.8297C18.7932 38.5881 20.938 38.852 22.9667 39.5143C24.8209 40.1196 26.6827 40.7108 28.1242 42.1158C30.0671 44.0095 30.2151 46.7198 28.5284 48.8497C27.459 50.2001 26.0682 51.1985 24.7883 52.321C23.1315 53.7741 21.605 55.3447 20.4479 57.2273C18.8141 59.8852 18.6027 62.6154 20.0491 65.4224C20.2166 65.7476 20.2092 65.7513 19.9442 65.912Z" fill="#FFA800"/>
<path d="M24.7537 22.5033C22.764 23.3597 20.8317 24.21 19.1294 25.4803C16.6669 27.3179 15.4348 30.478 16.1537 33.144C16.6187 34.8682 17.842 35.9875 19.2955 36.9197C19.5048 37.0538 19.7884 37.0903 19.9128 37.3378C19.8709 37.4731 19.7773 37.452 19.6905 37.4237C13.6446 35.4568 13.609 29.2025 16.4151 25.9602C18.1296 23.9792 20.4514 22.8853 22.8055 21.8687C25.0652 20.893 27.4022 20.0964 29.6351 19.0568C31.603 18.1406 33.4709 17.0915 34.8373 15.3432C35.4418 14.5699 35.7234 13.674 36.0065 12.7502C36.2011 13.1473 36.2215 13.51 36.1319 14.0453C35.8102 15.9675 34.7265 17.3981 33.1678 18.5196C30.8619 20.1789 28.1859 21.0995 25.5941 22.187C25.335 22.2957 25.0677 22.3855 24.7537 22.5033Z" fill="#FFA800"/>
<path d="M1.1635 37.1389C-0.936043 32.5779 0.0810361 27.8734 2.03755 25.3005C2.15933 25.5663 1.98854 25.7473 1.91272 25.9417C0.162916 30.4287 0.480108 34.7043 3.34228 38.6732C4.89993 40.8332 7.1746 42.0392 9.6143 42.9852C12.0297 43.9218 14.5572 44.4391 17.0904 44.935C17.8979 45.0931 18.6982 45.268 19.4467 45.623C20.8724 46.2992 21.2876 47.522 20.5395 48.8994C20.333 49.2797 20.1287 49.6742 19.7283 49.9235C19.5264 49.6833 19.705 49.496 19.7534 49.3188C20.1338 47.9263 19.7086 47.0285 18.3395 46.4927C17.2425 46.0634 16.0655 45.9463 14.9174 45.7162C11.2109 44.9734 7.60372 43.9855 4.59042 41.5627C3.10453 40.3679 2.00353 38.8857 1.1635 37.1389Z" fill="#FFA800"/>
<path d="M9.92235 34.099C9.92235 32.7257 10.229 31.499 10.8424 30.419C11.469 29.3257 12.3157 28.479 13.3824 27.879C14.4624 27.2657 15.669 26.959 17.0024 26.959C18.5624 26.959 19.929 27.359 21.1024 28.159C22.2757 28.959 23.0957 30.0657 23.5624 31.479H20.3424C20.0224 30.8123 19.569 30.3123 18.9824 29.979C18.409 29.6457 17.7424 29.479 16.9824 29.479C16.169 29.479 15.4424 29.6723 14.8024 30.059C14.1757 30.4323 13.6824 30.9657 13.3224 31.659C12.9757 32.3523 12.8024 33.1657 12.8024 34.099C12.8024 35.019 12.9757 35.8323 13.3224 36.539C13.6824 37.2323 14.1757 37.7723 14.8024 38.159C15.4424 38.5323 16.169 38.719 16.9824 38.719C17.7424 38.719 18.409 38.5523 18.9824 38.219C19.569 37.8723 20.0224 37.3657 20.3424 36.699H23.5624C23.0957 38.1257 22.2757 39.239 21.1024 40.039C19.9424 40.8257 18.5757 41.219 17.0024 41.219C15.669 41.219 14.4624 40.919 13.3824 40.319C12.3157 39.7057 11.469 38.859 10.8424 37.779C10.229 36.699 9.92235 35.4723 9.92235 34.099ZM30.8739 41.279C29.8072 41.279 28.8472 41.0457 27.9939 40.579C27.1406 40.099 26.4672 39.4257 25.9739 38.559C25.4939 37.6923 25.2539 36.6923 25.2539 35.559C25.2539 34.4257 25.5006 33.4257 25.9939 32.559C26.5006 31.6923 27.1872 31.0257 28.0539 30.559C28.9206 30.079 29.8872 29.839 30.9539 29.839C32.0206 29.839 32.9872 30.079 33.8539 30.559C34.7206 31.0257 35.4006 31.6923 35.8939 32.559C36.4006 33.4257 36.6539 34.4257 36.6539 35.559C36.6539 36.6923 36.3939 37.6923 35.8739 38.559C35.3672 39.4257 34.6739 40.099 33.7939 40.579C32.9272 41.0457 31.9539 41.279 30.8739 41.279ZM30.8739 38.839C31.3806 38.839 31.8539 38.719 32.2939 38.479C32.7472 38.2257 33.1072 37.8523 33.3739 37.359C33.6406 36.8657 33.7739 36.2657 33.7739 35.559C33.7739 34.5057 33.4939 33.699 32.9339 33.139C32.3872 32.5657 31.7139 32.279 30.9139 32.279C30.1139 32.279 29.4406 32.5657 28.8939 33.139C28.3606 33.699 28.0939 34.5057 28.0939 35.559C28.0939 36.6123 28.3539 37.4257 28.8739 37.999C29.4072 38.559 30.0739 38.839 30.8739 38.839ZM49.1678 30.019V41.099H46.3478V39.699C45.9878 40.179 45.5145 40.559 44.9278 40.839C44.3545 41.1057 43.7278 41.239 43.0478 41.239C42.1812 41.239 41.4145 41.059 40.7478 40.699C40.0812 40.3257 39.5545 39.7857 39.1678 39.079C38.7945 38.359 38.6078 37.5057 38.6078 36.519V30.019H41.4078V36.119C41.4078 36.999 41.6278 37.679 42.0678 38.159C42.5078 38.6257 43.1078 38.859 43.8678 38.859C44.6412 38.859 45.2478 38.6257 45.6878 38.159C46.1278 37.679 46.3478 36.999 46.3478 36.119V30.019H49.1678ZM58.0705 29.859C59.3905 29.859 60.4571 30.279 61.2705 31.119C62.0838 31.9457 62.4905 33.1057 62.4905 34.599V41.099H59.6905V34.979C59.6905 34.099 59.4705 33.4257 59.0305 32.959C58.5905 32.479 57.9905 32.239 57.2305 32.239C56.4571 32.239 55.8438 32.479 55.3905 32.959C54.9505 33.4257 54.7305 34.099 54.7305 34.979V41.099H51.9305V30.019H54.7305V31.399C55.1038 30.919 55.5771 30.5457 56.1505 30.279C56.7371 29.999 57.3771 29.859 58.0705 29.859ZM68.4131 32.319V37.679C68.4131 38.0523 68.4998 38.3257 68.6731 38.499C68.8598 38.659 69.1665 38.739 69.5931 38.739H70.8931V41.099H69.1331C66.7731 41.099 65.5931 39.9523 65.5931 37.659V32.319H64.2731V30.019H65.5931V27.279H68.4131V30.019H70.8931V32.319H68.4131ZM75.707 31.739C76.067 31.1523 76.5337 30.6923 77.107 30.359C77.6937 30.0257 78.3604 29.859 79.107 29.859V32.799H78.367C77.487 32.799 76.8204 33.0057 76.367 33.419C75.927 33.8323 75.707 34.5523 75.707 35.579V41.099H72.907V30.019H75.707V31.739ZM91.593 30.019L84.733 46.339H81.753L84.153 40.819L79.713 30.019H82.853L85.713 37.759L88.613 30.019H91.593Z" fill="white"/>
<path d="M57.0524 44.479C57.239 44.4457 57.569 44.4357 58.0424 44.449C58.5224 44.4623 58.8424 44.4423 59.0024 44.389C59.0624 44.3957 59.1524 44.4023 59.2724 44.409C59.3924 44.4157 59.4924 44.4257 59.5724 44.439C59.6524 44.4523 59.7357 44.469 59.8224 44.489C59.9157 44.509 59.9857 44.5457 60.0324 44.599C60.079 44.6523 60.1024 44.719 60.1024 44.799C60.1024 44.899 60.0657 44.9957 59.9924 45.089C59.919 45.1757 59.8424 45.2423 59.7624 45.289C59.689 45.3357 59.5824 45.399 59.4424 45.479C59.309 45.5523 59.2224 45.6023 59.1824 45.629C59.049 45.709 58.619 45.929 57.8924 46.289C58.1857 46.5623 58.5257 46.799 58.9124 46.999C59.3057 47.1923 59.7857 47.4023 60.3524 47.629C60.6257 47.7357 60.779 47.9457 60.8124 48.259C60.6857 48.2723 60.5424 48.2523 60.3824 48.199C60.2224 48.1457 60.049 48.0723 59.8624 47.979C59.6824 47.879 59.5524 47.8157 59.4724 47.789C59.3124 47.7357 58.9757 47.5557 58.4624 47.249C57.9557 46.9357 57.6357 46.7823 57.5024 46.789C57.3824 46.7957 57.3124 46.869 57.2924 47.009C57.2724 47.1423 57.2624 47.3057 57.2624 47.499C57.269 47.6857 57.2457 47.8223 57.1924 47.909C57.139 47.9157 57.0557 47.929 56.9424 47.949C56.9224 47.8823 56.9057 47.8157 56.8924 47.749C56.879 47.6757 56.8657 47.5923 56.8524 47.499C56.8457 47.399 56.839 47.3223 56.8324 47.269C56.8257 47.2157 56.819 47.129 56.8124 47.009C56.8124 46.8823 56.8124 46.799 56.8124 46.759C56.8124 46.719 56.8124 46.6223 56.8124 46.469C56.8124 46.3157 56.8124 46.2257 56.8124 46.199C56.8124 46.079 56.8024 45.9123 56.7824 45.699C56.7624 45.4857 56.7524 45.299 56.7524 45.139C56.759 44.979 56.7857 44.8323 56.8324 44.699C56.8857 44.5723 56.959 44.499 57.0524 44.479ZM59.3124 44.949C58.3657 44.8223 57.7424 44.9057 57.4424 45.199C57.4157 45.2323 57.3957 45.269 57.3824 45.309C57.369 45.3423 57.3624 45.3923 57.3624 45.459C57.3624 45.519 57.3624 45.5657 57.3624 45.599C57.369 45.6323 57.379 45.689 57.3924 45.769C57.4124 45.8423 57.4224 45.8857 57.4224 45.899C57.789 45.8257 58.1124 45.7157 58.3924 45.569C58.679 45.4157 58.9857 45.209 59.3124 44.949ZM63.5022 45.719C63.7222 45.5923 63.9555 45.5123 64.2022 45.479C64.4555 45.439 64.6755 45.469 64.8622 45.569C65.0489 45.669 65.1422 45.839 65.1422 46.079C65.1422 46.2657 65.0522 46.449 64.8722 46.629C64.6989 46.8023 64.5089 46.9257 64.3022 46.999C64.1889 47.0457 64.0489 47.0957 63.8822 47.149C63.7222 47.1957 63.5989 47.2323 63.5122 47.259C63.4322 47.2857 63.3389 47.3323 63.2322 47.399C63.1322 47.4657 63.0422 47.5423 62.9622 47.629C63.2489 47.7023 63.5622 47.709 63.9022 47.649C64.2489 47.5823 64.5455 47.4957 64.7922 47.389C65.0389 47.2823 65.3289 47.179 65.6622 47.079C66.0022 46.9723 66.3122 46.919 66.5922 46.919C66.5522 47.099 66.4522 47.239 66.2922 47.339C66.2189 47.3857 66.0722 47.4557 65.8522 47.549C65.6322 47.6423 65.3355 47.7623 64.9622 47.909C64.5889 48.049 64.3922 48.1223 64.3722 48.129C64.1655 48.2157 63.9555 48.279 63.7422 48.319C63.5289 48.3523 63.3155 48.3557 63.1022 48.329C62.8889 48.2957 62.7122 48.219 62.5722 48.099C62.5455 48.0857 62.4922 48.0357 62.4122 47.949C62.3322 47.8623 62.2655 47.8157 62.2122 47.809C62.1655 47.809 62.0555 47.8323 61.8822 47.879C61.7155 47.919 61.5955 47.9423 61.5222 47.949C61.4222 47.9557 61.3455 47.9223 61.2922 47.849C61.2389 47.7757 61.2122 47.6923 61.2122 47.599C61.2122 47.519 61.2422 47.4657 61.3022 47.439C61.3622 47.4057 61.4289 47.3923 61.5022 47.399C61.5822 47.399 61.6689 47.399 61.7622 47.399C61.8622 47.3923 61.9422 47.3723 62.0022 47.339C62.1689 47.2923 62.2755 47.2423 62.3222 47.189C62.3689 47.129 62.4355 46.9857 62.5222 46.759C62.5555 46.659 62.5889 46.5723 62.6222 46.499C62.6622 46.419 62.7089 46.3457 62.7622 46.279C62.8222 46.2123 62.8655 46.1623 62.8922 46.129C62.9189 46.0957 62.9789 46.049 63.0722 45.989C63.1655 45.929 63.2255 45.889 63.2522 45.869C63.2855 45.849 63.3689 45.799 63.5022 45.719ZM63.0422 46.839C63.2822 46.8523 63.5089 46.819 63.7222 46.739C63.9355 46.659 64.1055 46.569 64.2322 46.469C64.3589 46.369 64.5155 46.229 64.7022 46.049C64.3355 46.0023 64.0089 46.0557 63.7222 46.209C63.4355 46.3623 63.2089 46.5723 63.0422 46.839ZM67.3384 46.609C67.5784 46.6423 67.7684 46.659 67.9084 46.659C68.055 46.659 68.2684 46.649 68.5484 46.629C68.835 46.609 69.045 46.599 69.1784 46.599C69.4717 46.599 69.6817 46.649 69.8084 46.749C69.9417 46.849 69.9617 47.0123 69.8684 47.239C69.815 47.3523 69.725 47.4623 69.5984 47.569C69.4717 47.6757 69.345 47.759 69.2184 47.819C69.0984 47.879 68.9384 47.9523 68.7384 48.039C68.545 48.1257 68.405 48.1923 68.3184 48.239C68.1784 48.3123 68.055 48.3523 67.9484 48.359C67.8417 48.359 67.7184 48.3257 67.5784 48.259C67.5917 48.2123 67.625 48.1557 67.6784 48.089C67.7384 48.0223 67.8084 47.9557 67.8884 47.889C67.975 47.8223 68.065 47.7557 68.1584 47.689C68.2584 47.6157 68.355 47.549 68.4484 47.489C68.5417 47.429 68.625 47.3757 68.6984 47.329C68.7717 47.2823 68.8284 47.2423 68.8684 47.209C68.9084 47.1757 68.925 47.159 68.9184 47.159C68.805 47.1323 68.5217 47.149 68.0684 47.209C67.6217 47.269 67.365 47.299 67.2984 47.299C67.025 47.299 66.825 47.2423 66.6984 47.129C66.5784 47.009 66.555 46.8357 66.6284 46.609C66.6884 46.4023 66.825 46.2057 67.0384 46.019C67.0584 45.9923 67.2684 45.8557 67.6684 45.609C68.0684 45.3623 68.3884 45.1723 68.6284 45.039C68.7684 44.959 68.8817 44.9023 68.9684 44.869C69.0617 44.8357 69.1584 44.8223 69.2584 44.829C69.3584 44.8357 69.455 44.8757 69.5484 44.949C69.7017 45.0623 69.7617 45.169 69.7284 45.269C69.695 45.369 69.5717 45.4457 69.3584 45.499C68.6184 45.7057 67.945 46.0757 67.3384 46.609ZM71.1659 48.299C70.8192 48.2857 70.6459 48.089 70.6459 47.709C70.6459 47.6157 70.6525 47.4457 70.6659 47.199C70.6792 46.9457 70.6825 46.7223 70.6759 46.529C70.6759 46.3357 70.6659 46.1823 70.6459 46.069C70.6259 45.9823 70.5459 45.8623 70.4059 45.709C70.2659 45.549 70.2059 45.4257 70.2259 45.339C70.2392 45.2923 70.2959 45.239 70.3959 45.179C70.5025 45.1123 70.5559 45.0357 70.5559 44.949C70.5825 44.8157 70.5692 44.5823 70.5159 44.249C70.4692 43.909 70.4759 43.6957 70.5359 43.609C70.5692 43.549 70.6325 43.519 70.7259 43.519C70.9325 43.519 71.0559 43.729 71.0959 44.149C71.1225 44.5757 71.1559 44.8123 71.1959 44.859C71.2359 44.9123 71.3025 44.9557 71.3959 44.989C71.4892 45.0223 71.6125 45.049 71.7659 45.069C71.9192 45.089 72.0459 45.1057 72.1459 45.119C72.2525 45.1323 72.4025 45.1457 72.5959 45.159C72.7892 45.1723 72.9059 45.179 72.9459 45.179C72.3125 45.3657 71.9425 45.4723 71.8359 45.499C71.5425 45.559 71.3659 45.6123 71.3059 45.659C71.1859 45.7457 71.1259 45.9023 71.1259 46.129C71.1259 46.4957 71.1392 46.7957 71.1659 47.029C71.1992 47.2557 71.2625 47.4823 71.3559 47.709C71.4492 47.6823 71.5359 47.659 71.6159 47.639C71.6959 47.6123 71.7492 47.5957 71.7759 47.589C71.8092 47.5757 71.8525 47.5657 71.9059 47.559C71.9659 47.5523 72.0459 47.549 72.1459 47.549C72.1192 47.7357 72.0025 47.909 71.7959 48.069C71.5892 48.2223 71.3792 48.299 71.1659 48.299ZM73.3927 48.149C73.1727 48.2957 72.9927 48.3323 72.8527 48.259C72.7127 48.179 72.6427 47.989 72.6427 47.689C72.6427 47.3023 72.8693 46.8257 73.3227 46.259C73.776 45.6857 74.1793 45.299 74.5327 45.099C74.7193 44.999 74.846 44.9423 74.9127 44.929C74.9793 44.909 75.116 44.9157 75.3227 44.949C75.736 45.0023 75.936 45.279 75.9227 45.779C75.9093 46.0457 75.8427 46.299 75.7227 46.539C75.6027 46.7723 75.4393 46.9757 75.2327 47.149C75.026 47.3223 74.806 47.4757 74.5727 47.609C74.346 47.7357 74.096 47.849 73.8227 47.949C73.8227 47.949 73.7993 47.959 73.7527 47.979C73.7127 47.9923 73.6593 48.0157 73.5927 48.049C73.5327 48.0757 73.466 48.109 73.3927 48.149ZM73.1127 47.629C73.3927 47.649 73.7227 47.5657 74.1027 47.379C74.4893 47.1923 74.8227 46.949 75.1027 46.649C75.3827 46.349 75.5093 46.069 75.4827 45.809C75.4693 45.689 75.446 45.6023 75.4127 45.549C75.386 45.489 75.3293 45.459 75.2427 45.459C75.1493 45.459 75.0427 45.4923 74.9227 45.559C74.8093 45.6257 74.6693 45.719 74.5027 45.839C74.336 45.959 74.2393 46.029 74.2127 46.049C74.0193 46.1757 73.806 46.409 73.5727 46.749C73.3393 47.0823 73.186 47.3757 73.1127 47.629Z" fill="white"/>
</svg>