<svg width="24" height="24" viewBox="0 0 24 24" fill="none" xmlns="http://www.w3.org/2000/svg">
<path d="M17 5.85C17 8.0625 15.95 9.9125 14.5 10.625V23.25H12V10.625C10.55 9.9125 9.5 8.0625 9.5 5.85C9.5125 3.0375 11.1875 0.75 13.25 0.75C15.325 0.75 17 3.0375 17 5.85ZM18.25 0.75V23.25H20.75V13.25H23.25V5.75C23.25 3.55 21.7 0.75 18.25 0.75ZM7.35 0.75C6.85 0.75 6.45 1.15 6.45 1.65V5.75H5.4V1.65C5.4 1.15 5 0.75 4.5 0.75C4 0.75 3.6 1.15 3.6 1.65V5.75H2.55V1.65C2.55 1.15 2.15 0.75 1.65 0.75C1.15 0.75 0.75 1.15 0.75 1.65V8.25C0.75 9.625 1.875 10.75 3.25 10.75V23.25H5.75V10.75C7.125 10.75 8.25 9.625 8.25 8.25V1.65C8.25 1.15 7.85 0.75 7.35 0.75Z" fill="white"/>
</svg>
