<svg width="22" height="22" viewBox="0 0 22 22" fill="none" xmlns="http://www.w3.org/2000/svg">
<path d="M1.40002 0.993164C0.84774 0.993164 0.400024 1.44088 0.400024 1.99316C0.400024 2.54545 0.84774 2.99316 1.40002 2.99316V0.993164ZM3.69256 1.99316L4.65779 1.73175C4.53973 1.29585 4.14417 0.993164 3.69256 0.993164V1.99316ZM7.41793 15.7484L6.45271 16.0098C6.58298 16.4908 7.0475 16.8025 7.54197 16.7407L7.41793 15.7484ZM18.8806 14.3156L19.0047 15.3078C19.4293 15.2547 19.7732 14.9373 19.8599 14.5182L18.8806 14.3156ZM20.6 6.00511L21.5793 6.20771C21.6402 5.9132 21.5654 5.6069 21.3755 5.37368C21.1856 5.14047 20.9008 5.00511 20.6 5.00511V6.00511ZM4.77913 6.00511L3.8139 6.26652L4.77913 6.00511ZM1.40002 2.99316H3.69256V0.993164H1.40002V2.99316ZM7.54197 16.7407L19.0047 15.3078L18.7566 13.3233L7.2939 14.7561L7.54197 16.7407ZM19.8599 14.5182L21.5793 6.20771L19.6208 5.8025L17.9014 14.1129L19.8599 14.5182ZM2.72733 2.25458L3.8139 6.26652L5.74435 5.74369L4.65779 1.73175L2.72733 2.25458ZM3.8139 6.26652L6.45271 16.0098L8.38316 15.487L5.74435 5.74369L3.8139 6.26652ZM20.6 5.00511H4.77913V7.00511H20.6V5.00511ZM10 19.5004C10 19.7766 9.77617 20.0004 9.50002 20.0004V22.0004C10.8807 22.0004 12 20.8811 12 19.5004H10ZM9.50002 20.0004C9.22388 20.0004 9.00002 19.7766 9.00002 19.5004H7.00002C7.00002 20.8811 8.11931 22.0004 9.50002 22.0004V20.0004ZM9.00002 19.5004C9.00002 19.2243 9.22388 19.0004 9.50002 19.0004V17.0004C8.11931 17.0004 7.00002 18.1197 7.00002 19.5004H9.00002ZM9.50002 19.0004C9.77617 19.0004 10 19.2243 10 19.5004H12C12 18.1197 10.8807 17.0004 9.50002 17.0004V19.0004ZM18 19.5004C18 19.7766 17.7762 20.0004 17.5 20.0004V22.0004C18.8807 22.0004 20 20.8811 20 19.5004H18ZM17.5 20.0004C17.2239 20.0004 17 19.7766 17 19.5004H15C15 20.8811 16.1193 22.0004 17.5 22.0004V20.0004ZM17 19.5004C17 19.2243 17.2239 19.0004 17.5 19.0004V17.0004C16.1193 17.0004 15 18.1197 15 19.5004H17ZM17.5 19.0004C17.7762 19.0004 18 19.2243 18 19.5004H20C20 18.1197 18.8807 17.0004 17.5 17.0004V19.0004Z" fill="#FFA800"/>
</svg>
