<svg width="16" height="16" viewBox="0 0 16 16" fill="none" xmlns="http://www.w3.org/2000/svg">
<path d="M0.800049 0.744507C0.523906 0.744507 0.300049 0.968364 0.300049 1.24451C0.300049 1.52065 0.523906 1.74451 0.800049 1.74451V0.744507ZM2.51945 1.24451L3.00206 1.1138C2.94304 0.895848 2.74525 0.744507 2.51945 0.744507V1.24451ZM5.31348 11.5609L4.83087 11.6916C4.896 11.9321 5.12826 12.088 5.3755 12.0571L5.31348 11.5609ZM13.9105 10.4863L13.9725 10.9824C14.1849 10.9559 14.3568 10.7972 14.4001 10.5876L13.9105 10.4863ZM15.2 4.25346L15.6897 4.35477C15.7201 4.20751 15.6827 4.05436 15.5878 3.93775C15.4928 3.82114 15.3504 3.75346 15.2 3.75346V4.25346ZM3.33438 4.25346L2.85176 4.38417L3.33438 4.25346ZM0.800049 1.74451H2.51945V0.744507H0.800049V1.74451ZM5.3755 12.0571L13.9725 10.9824L13.8485 9.99016L5.25146 11.0648L5.3755 12.0571ZM14.4001 10.5876L15.6897 4.35477L14.7104 4.15216L13.4209 10.385L14.4001 10.5876ZM2.03684 1.37521L2.85176 4.38417L3.81699 4.12276L3.00206 1.1138L2.03684 1.37521ZM2.85176 4.38417L4.83087 11.6916L5.79609 11.4302L3.81699 4.12276L2.85176 4.38417ZM15.2 3.75346H3.33438V4.75346H15.2V3.75346ZM7.50005 14.375C7.50005 14.7201 7.22023 15 6.87505 15V16C7.77251 16 8.50005 15.2724 8.50005 14.375H7.50005ZM6.87505 15C6.52987 15 6.25005 14.7201 6.25005 14.375H5.25005C5.25005 15.2724 5.97759 16 6.87505 16V15ZM6.25005 14.375C6.25005 14.0298 6.52987 13.75 6.87505 13.75V12.75C5.97759 12.75 5.25005 13.4775 5.25005 14.375H6.25005ZM6.87505 13.75C7.22023 13.75 7.50005 14.0298 7.50005 14.375H8.50005C8.50005 13.4775 7.77251 12.75 6.87505 12.75V13.75ZM13.5 14.375C13.5 14.7201 13.2202 15 12.875 15V16C13.7725 16 14.5 15.2724 14.5 14.375H13.5ZM12.875 15C12.5299 15 12.25 14.7201 12.25 14.375H11.25C11.25 15.2724 11.9776 16 12.875 16V15ZM12.25 14.375C12.25 14.0298 12.5299 13.75 12.875 13.75V12.75C11.9776 12.75 11.25 13.4775 11.25 14.375H12.25ZM12.875 13.75C13.2202 13.75 13.5 14.0298 13.5 14.375H14.5C14.5 13.4775 13.7725 12.75 12.875 12.75V13.75Z" fill="white"/>
</svg>
