<svg width="44" height="48" viewBox="0 0 44 48" fill="none" xmlns="http://www.w3.org/2000/svg">
<g filter="url(#filter0_d_1260_13119)">
<circle cx="20" cy="20" r="20" fill="#FFC451"/>
</g>
<mask id="path-2-inside-1_1260_13119" fill="white">
<path fill-rule="evenodd" clip-rule="evenodd" d="M21.8549 14.1469C21.9015 14.1933 21.9384 14.2485 21.9636 14.3093C21.9888 14.37 22.0018 14.4351 22.0018 14.5009C22.0018 14.5667 21.9888 14.6318 21.9636 14.6925C21.9384 14.7533 21.9015 14.8084 21.8549 14.8549L16.2079 20.5009L21.8549 26.1469C21.9488 26.2408 22.0015 26.3681 22.0015 26.5009C22.0015 26.6337 21.9488 26.761 21.8549 26.8549C21.761 26.9488 21.6337 27.0015 21.5009 27.0015C21.3681 27.0015 21.2408 26.9488 21.1469 26.8549L15.1469 20.8549C15.1003 20.8084 15.0634 20.7533 15.0382 20.6925C15.013 20.6318 15 20.5667 15 20.5009C15 20.4351 15.013 20.37 15.0382 20.3093C15.0634 20.2485 15.1003 20.1933 15.1469 20.1469L21.1469 14.1469C21.1933 14.1003 21.2485 14.0634 21.3093 14.0382C21.37 14.013 21.4351 14 21.5009 14C21.5667 14 21.6318 14.013 21.6925 14.0382C21.7533 14.0634 21.8084 14.1003 21.8549 14.1469Z"/>
</mask>
<path fill-rule="evenodd" clip-rule="evenodd" d="M21.8549 14.1469C21.9015 14.1933 21.9384 14.2485 21.9636 14.3093C21.9888 14.37 22.0018 14.4351 22.0018 14.5009C22.0018 14.5667 21.9888 14.6318 21.9636 14.6925C21.9384 14.7533 21.9015 14.8084 21.8549 14.8549L16.2079 20.5009L21.8549 26.1469C21.9488 26.2408 22.0015 26.3681 22.0015 26.5009C22.0015 26.6337 21.9488 26.761 21.8549 26.8549C21.761 26.9488 21.6337 27.0015 21.5009 27.0015C21.3681 27.0015 21.2408 26.9488 21.1469 26.8549L15.1469 20.8549C15.1003 20.8084 15.0634 20.7533 15.0382 20.6925C15.013 20.6318 15 20.5667 15 20.5009C15 20.4351 15.013 20.37 15.0382 20.3093C15.0634 20.2485 15.1003 20.1933 15.1469 20.1469L21.1469 14.1469C21.1933 14.1003 21.2485 14.0634 21.3093 14.0382C21.37 14.013 21.4351 14 21.5009 14C21.5667 14 21.6318 14.013 21.6925 14.0382C21.7533 14.0634 21.8084 14.1003 21.8549 14.1469Z" fill="#212529"/>
<path d="M21.8549 14.1469L19.0229 16.9718L19.03 16.9789L21.8549 14.1469ZM21.8549 14.8549L19.03 12.0229L19.0267 12.0262L21.8549 14.8549ZM16.2079 20.5009L13.3797 17.6722L10.5505 20.5009L13.3797 23.3296L16.2079 20.5009ZM21.8549 26.1469L24.6833 23.3185L24.6831 23.3182L21.8549 26.1469ZM15.1469 20.8549L17.9753 18.0265L17.9717 18.0229L15.1469 20.8549ZM15.1469 20.1469L17.9717 22.9789L17.9753 22.9753L15.1469 20.1469ZM21.1469 14.1469L23.9753 16.9753L23.9789 16.9717L21.1469 14.1469ZM19.03 16.9789C18.7041 16.6538 18.4455 16.2675 18.2691 15.8423L25.6582 12.7762C25.4313 12.2295 25.0988 11.7329 24.6797 11.3149L19.03 16.9789ZM18.2691 15.8423C18.0926 15.4171 18.0018 14.9613 18.0018 14.5009H26.0018C26.0018 13.909 25.885 13.3229 25.6582 12.7762L18.2691 15.8423ZM18.0018 14.5009C18.0018 14.0405 18.0926 13.5847 18.2691 13.1595L25.6582 16.2256C25.885 15.6789 26.0018 15.0928 26.0018 14.5009H18.0018ZM18.2691 13.1595C18.4455 12.7343 18.7041 12.348 19.03 12.0229L24.6797 17.6869C25.0988 17.2689 25.4313 16.7723 25.6582 16.2256L18.2691 13.1595ZM19.0267 12.0262L13.3797 17.6722L19.0361 23.3296L24.6831 17.6836L19.0267 12.0262ZM13.3797 23.3296L19.0267 28.9756L24.6831 23.3182L19.0361 17.6722L13.3797 23.3296ZM19.0265 28.9753C18.3702 28.3191 18.0015 27.429 18.0015 26.5009H26.0015C26.0015 25.3073 25.5274 24.1625 24.6833 23.3185L19.0265 28.9753ZM18.0015 26.5009C18.0015 25.5728 18.3702 24.6827 19.0265 24.0265L24.6833 29.6833C25.5274 28.8393 26.0015 27.6945 26.0015 26.5009H18.0015ZM19.0265 24.0265C19.6827 23.3702 20.5728 23.0015 21.5009 23.0015V31.0015C22.6945 31.0015 23.8393 30.5274 24.6833 29.6833L19.0265 24.0265ZM21.5009 23.0015C22.429 23.0015 23.3191 23.3702 23.9753 24.0265L18.3185 29.6833C19.1625 30.5274 20.3073 31.0015 21.5009 31.0015V23.0015ZM23.9753 24.0265L17.9753 18.0265L12.3185 23.6833L18.3185 29.6833L23.9753 24.0265ZM17.9717 18.0229C18.2977 18.348 18.5563 18.7342 18.7327 19.1595L11.3436 22.2256C11.5705 22.7723 11.903 23.2689 12.322 23.6869L17.9717 18.0229ZM18.7327 19.1595C18.9092 19.5847 19 20.0405 19 20.5009H11C11 21.0928 11.1168 21.6789 11.3436 22.2256L18.7327 19.1595ZM19 20.5009C19 20.9613 18.9092 21.4171 18.7327 21.8423L11.3436 18.7762C11.1168 19.3229 11 19.909 11 20.5009H19ZM18.7327 21.8423C18.5563 22.2675 18.2977 22.6538 17.9717 22.9789L12.322 17.3149C11.903 17.7329 11.5705 18.2295 11.3436 18.7762L18.7327 21.8423ZM17.9753 22.9753L23.9753 16.9753L18.3185 11.3185L12.3185 17.3185L17.9753 22.9753ZM23.9789 16.9717C23.6538 17.2977 23.2675 17.5563 22.8423 17.7327L19.7762 10.3436C19.2295 10.5705 18.7329 10.903 18.3149 11.322L23.9789 16.9717ZM22.8423 17.7327C22.4171 17.9092 21.9613 18 21.5009 18V10C20.909 10 20.3229 10.1168 19.7762 10.3436L22.8423 17.7327ZM21.5009 18C21.0405 18 20.5847 17.9092 20.1595 17.7327L23.2256 10.3436C22.6789 10.1168 22.0928 10 21.5009 10V18ZM20.1595 17.7327C19.7343 17.5563 19.348 17.2977 19.0229 16.9717L24.6869 11.322C24.2689 10.903 23.7723 10.5705 23.2256 10.3436L20.1595 17.7327Z" fill="black" mask="url(#path-2-inside-1_1260_13119)"/>
<defs>
<filter id="filter0_d_1260_13119" x="-4" y="0" width="48" height="48" filterUnits="userSpaceOnUse" color-interpolation-filters="sRGB">
<feFlood flood-opacity="0" result="BackgroundImageFix"/>
<feColorMatrix in="SourceAlpha" type="matrix" values="0 0 0 0 0 0 0 0 0 0 0 0 0 0 0 0 0 0 127 0" result="hardAlpha"/>
<feOffset dy="4"/>
<feGaussianBlur stdDeviation="2"/>
<feComposite in2="hardAlpha" operator="out"/>
<feColorMatrix type="matrix" values="0 0 0 0 0 0 0 0 0 0 0 0 0 0 0 0 0 0 0.25 0"/>
<feBlend mode="normal" in2="BackgroundImageFix" result="effect1_dropShadow_1260_13119"/>
<feBlend mode="normal" in="SourceGraphic" in2="effect1_dropShadow_1260_13119" result="shape"/>
</filter>
</defs>
</svg>
