<svg width="48" height="48" viewBox="0 0 48 48" fill="none" xmlns="http://www.w3.org/2000/svg">
<g filter="url(#filter0_d_1251_6507)">
<circle cx="24" cy="20" r="20" fill="#FFC451"/>
</g>
<mask id="path-2-inside-1_1251_6507" fill="white">
<path fill-rule="evenodd" clip-rule="evenodd" d="M20.6459 13.6459C20.6924 13.5994 20.7475 13.5624 20.8083 13.5372C20.869 13.512 20.9341 13.499 20.9999 13.499C21.0657 13.499 21.1308 13.512 21.1916 13.5372C21.2523 13.5624 21.3075 13.5994 21.3539 13.6459L27.3539 19.6459C27.4005 19.6924 27.4374 19.7475 27.4626 19.8083C27.4878 19.869 27.5008 19.9341 27.5008 19.9999C27.5008 20.0657 27.4878 20.1308 27.4626 20.1916C27.4374 20.2523 27.4005 20.3075 27.3539 20.3539L21.3539 26.3539C21.26 26.4478 21.1327 26.5005 20.9999 26.5005C20.8671 26.5005 20.7398 26.4478 20.6459 26.3539C20.552 26.26 20.4993 26.1327 20.4993 25.9999C20.4993 25.8671 20.552 25.7398 20.6459 25.6459L26.2929 19.9999L20.6459 14.3539C20.5994 14.3075 20.5624 14.2523 20.5372 14.1916C20.512 14.1308 20.499 14.0657 20.499 13.9999C20.499 13.9341 20.512 13.869 20.5372 13.8083C20.5624 13.7475 20.5994 13.6924 20.6459 13.6459Z"/>
</mask>
<path fill-rule="evenodd" clip-rule="evenodd" d="M20.6459 13.6459C20.6924 13.5994 20.7475 13.5624 20.8083 13.5372C20.869 13.512 20.9341 13.499 20.9999 13.499C21.0657 13.499 21.1308 13.512 21.1916 13.5372C21.2523 13.5624 21.3075 13.5994 21.3539 13.6459L27.3539 19.6459C27.4005 19.6924 27.4374 19.7475 27.4626 19.8083C27.4878 19.869 27.5008 19.9341 27.5008 19.9999C27.5008 20.0657 27.4878 20.1308 27.4626 20.1916C27.4374 20.2523 27.4005 20.3075 27.3539 20.3539L21.3539 26.3539C21.26 26.4478 21.1327 26.5005 20.9999 26.5005C20.8671 26.5005 20.7398 26.4478 20.6459 26.3539C20.552 26.26 20.4993 26.1327 20.4993 25.9999C20.4993 25.8671 20.552 25.7398 20.6459 25.6459L26.2929 19.9999L20.6459 14.3539C20.5994 14.3075 20.5624 14.2523 20.5372 14.1916C20.512 14.1308 20.499 14.0657 20.499 13.9999C20.499 13.9341 20.512 13.869 20.5372 13.8083C20.5624 13.7475 20.5994 13.6924 20.6459 13.6459Z" fill="#212529"/>
<path d="M21.3539 13.6459L18.5219 16.4708L18.5255 16.4743L21.3539 13.6459ZM27.3539 19.6459L24.5255 22.4743L24.5291 22.4779L27.3539 19.6459ZM27.3539 20.3539L24.5291 17.5219L24.5255 17.5255L27.3539 20.3539ZM20.6459 25.6459L17.8177 22.8172L17.8175 22.8175L20.6459 25.6459ZM26.2929 19.9999L29.1211 22.8286L31.9503 19.9999L29.1211 17.1712L26.2929 19.9999ZM20.6459 14.3539L23.4741 11.5252L23.4708 11.5219L20.6459 14.3539ZM23.4779 16.4708C23.1528 16.7967 22.7666 17.0553 22.3414 17.2318L19.2752 9.84265C18.7285 10.0695 18.2319 10.402 17.8139 10.8211L23.4779 16.4708ZM22.3414 17.2318C21.9161 17.4082 21.4603 17.499 20.9999 17.499V9.49902C20.408 9.49902 19.8219 9.6158 19.2752 9.84265L22.3414 17.2318ZM20.9999 17.499C20.5395 17.499 20.0837 17.4082 19.6585 17.2318L22.7246 9.84265C22.1779 9.6158 21.5918 9.49902 20.9999 9.49902V17.499ZM19.6585 17.2318C19.2333 17.0553 18.847 16.7967 18.5219 16.4708L24.1859 10.8211C23.7679 10.402 23.2713 10.0695 22.7246 9.84265L19.6585 17.2318ZM18.5255 16.4743L24.5255 22.4743L30.1823 16.8175L24.1823 10.8175L18.5255 16.4743ZM24.5291 22.4779C24.2031 22.1528 23.9445 21.7665 23.7681 21.3414L31.1572 18.2752C30.9303 17.7285 30.5979 17.2319 30.1788 16.8139L24.5291 22.4779ZM23.7681 21.3414C23.5916 20.9161 23.5008 20.4603 23.5008 19.9999H31.5008C31.5008 19.408 31.384 18.8219 31.1572 18.2752L23.7681 21.3414ZM23.5008 19.9999C23.5008 19.5395 23.5916 19.0837 23.7681 18.6585L31.1572 21.7246C31.384 21.1779 31.5008 20.5918 31.5008 19.9999H23.5008ZM23.7681 18.6585C23.9445 18.2333 24.2031 17.8471 24.5291 17.5219L30.1788 23.1859C30.5979 22.7679 30.9303 22.2713 31.1572 21.7246L23.7681 18.6585ZM24.5255 17.5255L18.5255 23.5255L24.1823 29.1823L30.1823 23.1823L24.5255 17.5255ZM18.5255 23.5255C19.1818 22.8692 20.0718 22.5005 20.9999 22.5005V30.5005C22.1936 30.5005 23.3383 30.0264 24.1823 29.1823L18.5255 23.5255ZM20.9999 22.5005C21.928 22.5005 22.8181 22.8692 23.4743 23.5255L17.8175 29.1823C18.6615 30.0264 19.8063 30.5005 20.9999 30.5005V22.5005ZM23.4743 23.5255C24.1306 24.1817 24.4993 25.0718 24.4993 25.9999H16.4993C16.4993 27.1936 16.9735 28.3383 17.8175 29.1823L23.4743 23.5255ZM24.4993 25.9999C24.4993 26.928 24.1306 27.8181 23.4743 28.4743L17.8175 22.8175C16.9735 23.6615 16.4993 24.8063 16.4993 25.9999H24.4993ZM23.4741 28.4746L29.1211 22.8286L23.4647 17.1712L17.8177 22.8172L23.4741 28.4746ZM29.1211 17.1712L23.4741 11.5252L17.8177 17.1826L23.4647 22.8286L29.1211 17.1712ZM23.4708 11.5219C23.7967 11.847 24.0553 12.2333 24.2318 12.6585L16.8427 15.7246C17.0695 16.2713 17.402 16.7679 17.8211 17.1859L23.4708 11.5219ZM24.2318 12.6585C24.4082 13.0837 24.499 13.5396 24.499 13.9999H16.499C16.499 14.5918 16.6158 15.1779 16.8427 15.7246L24.2318 12.6585ZM24.499 13.9999C24.499 14.4603 24.4082 14.9161 24.2318 15.3414L16.8427 12.2752C16.6158 12.8219 16.499 13.408 16.499 13.9999H24.499ZM24.2318 15.3414C24.0553 15.7666 23.7967 16.1528 23.4708 16.4779L17.8211 10.8139C17.402 11.2319 17.0695 11.7285 16.8427 12.2752L24.2318 15.3414Z" fill="black" mask="url(#path-2-inside-1_1251_6507)"/>
<defs>
<filter id="filter0_d_1251_6507" x="0" y="0" width="48" height="48" filterUnits="userSpaceOnUse" color-interpolation-filters="sRGB">
<feFlood flood-opacity="0" result="BackgroundImageFix"/>
<feColorMatrix in="SourceAlpha" type="matrix" values="0 0 0 0 0 0 0 0 0 0 0 0 0 0 0 0 0 0 127 0" result="hardAlpha"/>
<feOffset dy="4"/>
<feGaussianBlur stdDeviation="2"/>
<feComposite in2="hardAlpha" operator="out"/>
<feColorMatrix type="matrix" values="0 0 0 0 0 0 0 0 0 0 0 0 0 0 0 0 0 0 0.25 0"/>
<feBlend mode="normal" in2="BackgroundImageFix" result="effect1_dropShadow_1251_6507"/>
<feBlend mode="normal" in="SourceGraphic" in2="effect1_dropShadow_1251_6507" result="shape"/>
</filter>
</defs>
</svg>
