<svg width="13" height="15" viewBox="0 0 13 15" fill="none" xmlns="http://www.w3.org/2000/svg">
<path d="M0.5 3.375L12.5 3.375M9.5 13.875H3.5C2.67157 13.875 2 13.2034 2 12.375V4.125C2 3.71079 2.33579 3.375 2.75 3.375H10.25C10.6642 3.375 11 3.71079 11 4.125V12.375C11 13.2034 10.3284 13.875 9.5 13.875ZM5 3.375H8C8.41421 3.375 8.75 3.03921 8.75 2.625V1.875C8.75 1.46079 8.41421 1.125 8 1.125H5C4.58579 1.125 4.25 1.46079 4.25 1.875V2.625C4.25 3.03921 4.58579 3.375 5 3.375Z" stroke="#FFA800" stroke-linecap="round"/>
</svg>
