<svg xmlns="http://www.w3.org/2000/svg" width="524" height="419" viewBox="0 0 524 419" fill="none">
<path d="M127.318 419C108.742 404.681 101.986 383.051 108.535 360.704C113.254 344.601 122.689 331.256 133.168 318.44C135.987 314.992 138.784 311.52 140.502 307.37C143.773 299.467 141.902 292.63 135.123 287.321C127.513 281.361 118.239 280.076 109.134 278.27C91.2804 274.728 73.7577 270.092 57.8734 261.047C34.9382 247.987 21.4392 228.431 18.639 202.515C14.7512 166.533 28.6778 137.953 58.3961 117.092C75.4794 105.101 95.4403 99.2866 115.71 94.627C134.077 90.405 152.721 87.3797 170.875 82.2414C181.754 79.1619 191.991 74.7608 201.544 68.7283C217.162 58.8659 221.341 44.3941 219.164 27.3562C218.017 18.3792 215.156 9.87177 210.869 1.84326C210.585 1.31139 210.397 0.755201 211.07 0C213.288 0.416195 214.139 2.51489 215.279 4.01843C228.895 21.9722 234.349 41.8291 228.931 63.909C225.992 75.8881 218.384 84.8758 208.536 92.1765C195.227 102.043 180.128 108.552 164.824 114.712C143.741 123.197 122.113 130.521 102.875 142.941C89.6288 151.493 79.7979 162.58 75.2785 177.728C66.5498 206.984 77.8609 229.385 107.216 240.482C119.969 245.303 133.665 246.981 146.621 251.191C158.461 255.039 170.351 258.797 179.556 267.728C191.964 279.766 192.909 296.996 182.137 310.536C175.308 319.12 166.427 325.467 158.253 332.602C147.673 341.84 137.925 351.824 130.535 363.791C120.102 380.688 118.752 398.043 127.988 415.888C129.058 417.955 129.011 417.978 127.318 419Z" fill="#FFA800" fill-opacity="0.8"/>
<path d="M158.403 142.612C145.765 148.022 133.491 153.394 122.678 161.419C107.036 173.027 99.2104 192.99 103.777 209.832C106.73 220.724 114.501 227.795 123.733 233.683C125.062 234.531 126.864 234.761 127.654 236.325C127.388 237.18 126.794 237.046 126.242 236.868C87.8396 224.442 87.6134 184.933 105.437 164.45C116.327 151.936 131.075 145.025 146.028 138.603C160.382 132.439 175.226 127.407 189.409 120.84C201.909 115.052 213.774 108.424 222.453 97.3804C226.293 92.4951 228.081 86.8355 229.879 81C231.115 83.5081 231.245 85.7994 230.676 89.1813C228.633 101.324 221.749 110.362 211.849 117.446C197.201 127.928 180.204 133.744 163.741 140.614C162.095 141.301 160.398 141.868 158.403 142.612Z" fill="#FFA800" fill-opacity="0.8"/>
<path d="M7.40211 235.964C-5.95506 206.697 0.515547 176.509 12.9628 160C13.7375 161.706 12.651 162.867 12.1686 164.114C1.03646 192.906 3.05442 220.342 21.2634 245.81C31.1731 259.67 45.6444 267.408 61.1656 273.478C76.5325 279.488 92.6119 282.808 108.728 285.99C113.865 287.004 118.957 288.127 123.719 290.405C132.789 294.744 135.43 302.59 130.671 311.429C129.357 313.869 128.058 316.4 125.51 318C124.226 316.459 125.362 315.257 125.67 314.12C128.09 305.185 125.385 299.423 116.675 295.985C109.696 293.231 102.208 292.479 94.9036 291.003C71.3234 286.236 48.3744 279.897 29.204 264.35C19.7509 256.684 12.7463 247.173 7.40211 235.964Z" fill="#FFA800" fill-opacity="0.8"/>
<path d="M77.36 211.4C77.36 204.808 78.832 198.92 81.776 193.736C84.784 188.488 88.848 184.424 93.968 181.544C99.152 178.6 104.944 177.128 111.344 177.128C118.832 177.128 125.392 179.048 131.024 182.888C136.656 186.728 140.592 192.04 142.832 198.824H127.376C125.84 195.624 123.664 193.224 120.848 191.624C118.096 190.024 114.896 189.224 111.248 189.224C107.344 189.224 103.856 190.152 100.784 192.008C97.776 193.8 95.408 196.36 93.68 199.688C92.016 203.016 91.184 206.92 91.184 211.4C91.184 215.816 92.016 219.72 93.68 223.112C95.408 226.44 97.776 229.032 100.784 230.888C103.856 232.68 107.344 233.576 111.248 233.576C114.896 233.576 118.096 232.776 120.848 231.176C123.664 229.512 125.84 227.08 127.376 223.88H142.832C140.592 230.728 136.656 236.072 131.024 239.912C125.456 243.688 118.896 245.576 111.344 245.576C104.944 245.576 99.152 244.136 93.968 241.256C88.848 238.312 84.784 234.248 81.776 229.064C78.832 223.88 77.36 217.992 77.36 211.4ZM177.928 245.864C172.808 245.864 168.2 244.744 164.104 242.504C160.008 240.2 156.776 236.968 154.408 232.808C152.104 228.648 150.952 223.848 150.952 218.408C150.952 212.968 152.136 208.168 154.504 204.008C156.936 199.848 160.232 196.648 164.392 194.408C168.552 192.104 173.192 190.952 178.312 190.952C183.432 190.952 188.072 192.104 192.232 194.408C196.392 196.648 199.656 199.848 202.024 204.008C204.456 208.168 205.672 212.968 205.672 218.408C205.672 223.848 204.424 228.648 201.927 232.808C199.496 236.968 196.168 240.2 191.944 242.504C187.784 244.744 183.112 245.864 177.928 245.864ZM177.928 234.152C180.36 234.152 182.632 233.576 184.744 232.424C186.92 231.208 188.648 229.416 189.928 227.048C191.208 224.68 191.848 221.8 191.848 218.408C191.848 213.352 190.504 209.48 187.816 206.792C185.192 204.04 181.96 202.664 178.12 202.664C174.28 202.664 171.048 204.04 168.424 206.792C165.864 209.48 164.584 213.352 164.584 218.408C164.584 223.464 165.832 227.368 168.328 230.12C170.888 232.808 174.088 234.152 177.928 234.152ZM265.738 191.816V245H252.202V238.28C250.474 240.584 248.202 242.408 245.386 243.752C242.634 245.032 239.626 245.672 236.362 245.672C232.202 245.672 228.522 244.808 225.322 243.08C222.122 241.288 219.594 238.696 217.738 235.304C215.946 231.848 215.05 227.752 215.05 223.016V191.816H228.49V221.096C228.49 225.32 229.546 228.584 231.658 230.888C233.77 233.128 236.65 234.248 240.298 234.248C244.01 234.248 246.922 233.128 249.034 230.888C251.146 228.584 252.202 225.32 252.202 221.096V191.816H265.738ZM308.471 191.048C314.807 191.048 319.927 193.064 323.831 197.096C327.735 201.064 329.687 206.632 329.687 213.8V245H316.247V215.624C316.247 211.4 315.191 208.168 313.079 205.928C310.967 203.624 308.087 202.472 304.439 202.472C300.727 202.472 297.783 203.624 295.607 205.928C293.495 208.168 292.439 211.4 292.439 215.624V245H278.999V191.816H292.439V198.44C294.231 196.136 296.503 194.344 299.255 193.064C302.071 191.72 305.143 191.048 308.471 191.048ZM358.116 202.856V228.584C358.116 230.376 358.532 231.688 359.364 232.52C360.26 233.288 361.732 233.672 363.78 233.672H370.02V245H361.572C350.244 245 344.58 239.496 344.58 228.488V202.856H338.244V191.816H344.58V178.664H358.116V191.816H370.02V202.856H358.116ZM393.127 200.072C394.855 197.256 397.095 195.048 399.847 193.448C402.663 191.848 405.863 191.048 409.447 191.048V205.16H405.895C401.671 205.16 398.471 206.152 396.295 208.136C394.183 210.12 393.127 213.576 393.127 218.504V245H379.687V191.816H393.127V200.072ZM469.379 191.816L436.451 270.152H422.147L433.667 243.656L412.355 191.816H427.427L441.155 228.968L455.075 191.816H469.379Z" fill="white" fill-opacity="0.8"/>
<path d="M328.905 259.83C329.558 259.713 330.713 259.678 332.37 259.725C334.05 259.772 335.17 259.702 335.73 259.515C335.94 259.538 336.255 259.562 336.675 259.585C337.095 259.608 337.445 259.643 337.725 259.69C338.005 259.737 338.297 259.795 338.6 259.865C338.927 259.935 339.172 260.063 339.335 260.25C339.498 260.437 339.58 260.67 339.58 260.95C339.58 261.3 339.452 261.638 339.195 261.965C338.938 262.268 338.67 262.502 338.39 262.665C338.133 262.828 337.76 263.05 337.27 263.33C336.803 263.587 336.5 263.762 336.36 263.855C335.893 264.135 334.388 264.905 331.845 266.165C332.872 267.122 334.062 267.95 335.415 268.65C336.792 269.327 338.472 270.062 340.455 270.855C341.412 271.228 341.948 271.963 342.065 273.06C341.622 273.107 341.12 273.037 340.56 272.85C340 272.663 339.393 272.407 338.74 272.08C338.11 271.73 337.655 271.508 337.375 271.415C336.815 271.228 335.637 270.598 333.84 269.525C332.067 268.428 330.947 267.892 330.48 267.915C330.06 267.938 329.815 268.195 329.745 268.685C329.675 269.152 329.64 269.723 329.64 270.4C329.663 271.053 329.582 271.532 329.395 271.835C329.208 271.858 328.917 271.905 328.52 271.975C328.45 271.742 328.392 271.508 328.345 271.275C328.298 271.018 328.252 270.727 328.205 270.4C328.182 270.05 328.158 269.782 328.135 269.595C328.112 269.408 328.088 269.105 328.065 268.685C328.065 268.242 328.065 267.95 328.065 267.81C328.065 267.67 328.065 267.332 328.065 266.795C328.065 266.258 328.065 265.943 328.065 265.85C328.065 265.43 328.03 264.847 327.96 264.1C327.89 263.353 327.855 262.7 327.855 262.14C327.878 261.58 327.972 261.067 328.135 260.6C328.322 260.157 328.578 259.9 328.905 259.83ZM336.815 261.475C333.502 261.032 331.32 261.323 330.27 262.35C330.177 262.467 330.107 262.595 330.06 262.735C330.013 262.852 329.99 263.027 329.99 263.26C329.99 263.47 329.99 263.633 329.99 263.75C330.013 263.867 330.048 264.065 330.095 264.345C330.165 264.602 330.2 264.753 330.2 264.8C331.483 264.543 332.615 264.158 333.595 263.645C334.598 263.108 335.672 262.385 336.815 261.475ZM351.479 264.17C352.249 263.727 353.066 263.447 353.929 263.33C354.816 263.19 355.586 263.295 356.239 263.645C356.893 263.995 357.219 264.59 357.219 265.43C357.219 266.083 356.904 266.725 356.274 267.355C355.668 267.962 355.003 268.393 354.279 268.65C353.883 268.813 353.393 268.988 352.809 269.175C352.249 269.338 351.818 269.467 351.514 269.56C351.234 269.653 350.908 269.817 350.534 270.05C350.184 270.283 349.869 270.552 349.589 270.855C350.593 271.112 351.689 271.135 352.879 270.925C354.093 270.692 355.131 270.388 355.994 270.015C356.858 269.642 357.873 269.28 359.039 268.93C360.229 268.557 361.314 268.37 362.294 268.37C362.154 269 361.804 269.49 361.244 269.84C360.988 270.003 360.474 270.248 359.704 270.575C358.934 270.902 357.896 271.322 356.589 271.835C355.283 272.325 354.594 272.582 354.524 272.605C353.801 272.908 353.066 273.13 352.319 273.27C351.573 273.387 350.826 273.398 350.079 273.305C349.333 273.188 348.714 272.92 348.224 272.5C348.131 272.453 347.944 272.278 347.664 271.975C347.384 271.672 347.151 271.508 346.964 271.485C346.801 271.485 346.416 271.567 345.809 271.73C345.226 271.87 344.806 271.952 344.549 271.975C344.199 271.998 343.931 271.882 343.744 271.625C343.558 271.368 343.464 271.077 343.464 270.75C343.464 270.47 343.569 270.283 343.779 270.19C343.989 270.073 344.223 270.027 344.479 270.05C344.759 270.05 345.063 270.05 345.389 270.05C345.739 270.027 346.019 269.957 346.229 269.84C346.813 269.677 347.186 269.502 347.349 269.315C347.513 269.105 347.746 268.603 348.049 267.81C348.166 267.46 348.283 267.157 348.399 266.9C348.539 266.62 348.703 266.363 348.889 266.13C349.099 265.897 349.251 265.722 349.344 265.605C349.438 265.488 349.648 265.325 349.974 265.115C350.301 264.905 350.511 264.765 350.604 264.695C350.721 264.625 351.013 264.45 351.479 264.17ZM349.869 268.09C350.709 268.137 351.503 268.02 352.249 267.74C352.996 267.46 353.591 267.145 354.034 266.795C354.478 266.445 355.026 265.955 355.679 265.325C354.396 265.162 353.253 265.348 352.249 265.885C351.246 266.422 350.453 267.157 349.869 268.09ZM364.906 267.285C365.746 267.402 366.411 267.46 366.901 267.46C367.414 267.46 368.161 267.425 369.141 267.355C370.144 267.285 370.879 267.25 371.346 267.25C372.373 267.25 373.108 267.425 373.551 267.775C374.018 268.125 374.088 268.697 373.761 269.49C373.574 269.887 373.259 270.272 372.816 270.645C372.373 271.018 371.929 271.31 371.486 271.52C371.066 271.73 370.506 271.987 369.806 272.29C369.129 272.593 368.639 272.827 368.336 272.99C367.846 273.247 367.414 273.387 367.041 273.41C366.668 273.41 366.236 273.293 365.746 273.06C365.793 272.897 365.909 272.698 366.096 272.465C366.306 272.232 366.551 271.998 366.831 271.765C367.134 271.532 367.449 271.298 367.776 271.065C368.126 270.808 368.464 270.575 368.791 270.365C369.118 270.155 369.409 269.968 369.666 269.805C369.923 269.642 370.121 269.502 370.261 269.385C370.401 269.268 370.459 269.21 370.436 269.21C370.039 269.117 369.048 269.175 367.461 269.385C365.898 269.595 364.999 269.7 364.766 269.7C363.809 269.7 363.109 269.502 362.666 269.105C362.246 268.685 362.164 268.078 362.421 267.285C362.631 266.562 363.109 265.873 363.856 265.22C363.926 265.127 364.661 264.648 366.061 263.785C367.461 262.922 368.581 262.257 369.421 261.79C369.911 261.51 370.308 261.312 370.611 261.195C370.938 261.078 371.276 261.032 371.626 261.055C371.976 261.078 372.314 261.218 372.641 261.475C373.178 261.872 373.388 262.245 373.271 262.595C373.154 262.945 372.723 263.213 371.976 263.4C369.386 264.123 367.029 265.418 364.906 267.285ZM378.302 273.2C377.089 273.153 376.482 272.465 376.482 271.135C376.482 270.808 376.506 270.213 376.552 269.35C376.599 268.463 376.611 267.682 376.587 267.005C376.587 266.328 376.552 265.792 376.482 265.395C376.412 265.092 376.132 264.672 375.642 264.135C375.152 263.575 374.942 263.143 375.012 262.84C375.059 262.677 375.257 262.49 375.607 262.28C375.981 262.047 376.167 261.778 376.167 261.475C376.261 261.008 376.214 260.192 376.027 259.025C375.864 257.835 375.887 257.088 376.097 256.785C376.214 256.575 376.436 256.47 376.762 256.47C377.486 256.47 377.917 257.205 378.057 258.675C378.151 260.168 378.267 260.997 378.407 261.16C378.547 261.347 378.781 261.498 379.107 261.615C379.434 261.732 379.866 261.825 380.402 261.895C380.939 261.965 381.382 262.023 381.732 262.07C382.106 262.117 382.631 262.163 383.307 262.21C383.984 262.257 384.392 262.28 384.532 262.28C382.316 262.933 381.021 263.307 380.647 263.4C379.621 263.61 379.002 263.797 378.792 263.96C378.372 264.263 378.162 264.812 378.162 265.605C378.162 266.888 378.209 267.938 378.302 268.755C378.419 269.548 378.641 270.342 378.967 271.135C379.294 271.042 379.597 270.96 379.877 270.89C380.157 270.797 380.344 270.738 380.437 270.715C380.554 270.668 380.706 270.633 380.892 270.61C381.102 270.587 381.382 270.575 381.732 270.575C381.639 271.228 381.231 271.835 380.507 272.395C379.784 272.932 379.049 273.2 378.302 273.2ZM386.096 272.675C385.326 273.188 384.696 273.317 384.206 273.06C383.716 272.78 383.471 272.115 383.471 271.065C383.471 269.712 384.264 268.043 385.851 266.06C387.438 264.053 388.849 262.7 390.086 262C390.739 261.65 391.183 261.452 391.416 261.405C391.649 261.335 392.128 261.358 392.851 261.475C394.298 261.662 394.998 262.63 394.951 264.38C394.904 265.313 394.671 266.2 394.251 267.04C393.831 267.857 393.259 268.568 392.536 269.175C391.813 269.782 391.043 270.318 390.226 270.785C389.433 271.228 388.558 271.625 387.601 271.975C387.601 271.975 387.519 272.01 387.356 272.08C387.216 272.127 387.029 272.208 386.796 272.325C386.586 272.418 386.353 272.535 386.096 272.675ZM385.116 270.855C386.096 270.925 387.251 270.633 388.581 269.98C389.934 269.327 391.101 268.475 392.081 267.425C393.061 266.375 393.504 265.395 393.411 264.485C393.364 264.065 393.283 263.762 393.166 263.575C393.073 263.365 392.874 263.26 392.571 263.26C392.244 263.26 391.871 263.377 391.451 263.61C391.054 263.843 390.564 264.17 389.981 264.59C389.398 265.01 389.059 265.255 388.966 265.325C388.289 265.768 387.543 266.585 386.726 267.775C385.909 268.942 385.373 269.968 385.116 270.855Z" fill="white" fill-opacity="0.8"/>
</svg>