<svg width="22" height="22" viewBox="0 0 22 22" fill="none" xmlns="http://www.w3.org/2000/svg">
<path d="M11.871 5.32583C13.0709 5.52693 14.1608 6.09365 15.031 6.96202C15.9011 7.83038 16.4644 8.91812 16.6705 10.1156M12.0542 1.3999C14.1883 1.76096 16.1347 2.771 17.6826 4.31121C19.2306 5.85598 20.2381 7.79838 20.5999 9.92816M18.9329 18.4016C18.9329 18.4016 17.7742 19.5396 17.4903 19.8732C17.0277 20.3668 16.4827 20.5999 15.7683 20.5999C15.6996 20.5999 15.6263 20.5999 15.5576 20.5953C14.1974 20.5085 12.9335 19.9783 11.9855 19.5259C9.39335 18.2736 7.11724 16.4957 5.22582 14.2426C3.66415 12.3641 2.61997 10.6274 1.92844 8.76272C1.50253 7.6247 1.34682 6.73806 1.41551 5.90168C1.46131 5.36695 1.6674 4.92363 2.04751 4.54429L3.60919 2.98581C3.83359 2.77557 4.07174 2.66131 4.3053 2.66131C4.59382 2.66131 4.82739 2.83499 4.97394 2.98124C4.97852 2.98581 4.9831 2.99038 4.98768 2.99495C5.26704 3.25546 5.53266 3.52511 5.81202 3.81304C5.95399 3.95929 6.10054 4.10554 6.24709 4.25636L7.49735 5.50407C7.9828 5.98852 7.9828 6.43641 7.49735 6.92087C7.36454 7.05341 7.23631 7.18595 7.1035 7.31392C6.7188 7.70697 7.021 7.40539 6.62257 7.76187C6.61341 7.77101 6.60425 7.77558 6.59967 7.78472C6.20582 8.17777 6.27909 8.56168 6.36153 8.82219C6.36611 8.8359 6.37069 8.84961 6.37527 8.86332C6.70042 9.64942 7.15839 10.3898 7.85451 11.2719L7.85909 11.2765C9.12308 12.8304 10.4558 14.0415 11.9259 14.9693C12.1136 15.0881 12.306 15.1841 12.4892 15.2755C12.654 15.3578 12.8097 15.4355 12.9426 15.5177C12.9609 15.5269 12.9792 15.5406 12.9975 15.5497C13.1532 15.6274 13.2998 15.664 13.4509 15.664C13.831 15.664 14.0692 15.4263 14.147 15.3486L15.0447 14.4528C15.2004 14.2974 15.4477 14.11 15.7362 14.11C16.0202 14.11 16.2537 14.2883 16.3957 14.4436C16.4003 14.4482 16.4003 14.4482 16.4049 14.4528L18.9283 16.971C19.4 17.4372 18.9329 18.4016 18.9329 18.4016Z" stroke="white" stroke-width="2" stroke-linecap="round" stroke-linejoin="round"/>
</svg>
