<svg width="26" height="24" viewBox="0 0 26 24" fill="none" xmlns="http://www.w3.org/2000/svg">
<path d="M23 5.125H20.275C20.4125 4.7375 20.5 4.3125 20.5 3.875C20.5 1.8 18.825 0.125 16.75 0.125C15.4375 0.125 14.3 0.8 13.625 1.8125L13 2.65L12.375 1.8C11.7 0.8 10.5625 0.125 9.25 0.125C7.175 0.125 5.5 1.8 5.5 3.875C5.5 4.3125 5.5875 4.7375 5.725 5.125H3C1.6125 5.125 0.5125 6.2375 0.5125 7.625L0.5 21.375C0.5 22.7625 1.6125 23.875 3 23.875H23C24.3875 23.875 25.5 22.7625 25.5 21.375V7.625C25.5 6.2375 24.3875 5.125 23 5.125ZM16.75 2.625C17.4375 2.625 18 3.1875 18 3.875C18 4.5625 17.4375 5.125 16.75 5.125C16.0625 5.125 15.5 4.5625 15.5 3.875C15.5 3.1875 16.0625 2.625 16.75 2.625ZM9.25 2.625C9.9375 2.625 10.5 3.1875 10.5 3.875C10.5 4.5625 9.9375 5.125 9.25 5.125C8.5625 5.125 8 4.5625 8 3.875C8 3.1875 8.5625 2.625 9.25 2.625ZM23 21.375H3V18.875H23V21.375ZM23 15.125H3V7.625H9.35L6.75 11.1625L8.775 12.625L13 6.875L17.225 12.625L19.25 11.1625L16.65 7.625H23V15.125Z" fill="white"/>
</svg>
