<svg width="20" height="17" viewBox="0 0 20 17" fill="none" xmlns="http://www.w3.org/2000/svg">
<path d="M6.2825 16.7499C13.83 16.7499 17.9587 10.4961 17.9587 5.08239C17.9587 4.90739 17.9587 4.72989 17.9513 4.55489C18.7551 3.973 19.4488 3.25258 20 2.42739C19.2491 2.75845 18.4535 2.97665 17.6388 3.07489C18.4969 2.56194 19.1397 1.75485 19.4475 0.80364C18.6412 1.28129 17.7588 1.61661 16.8387 1.79489C16.2202 1.13617 15.4018 0.699787 14.5101 0.553337C13.6185 0.406886 12.7034 0.558542 11.9067 0.984811C11.1099 1.41108 10.476 2.08818 10.1031 2.91122C9.73012 3.73425 9.63897 4.65731 9.84375 5.53739C8.21218 5.45558 6.61602 5.03172 5.1588 4.29332C3.70159 3.55491 2.41586 2.51844 1.385 1.25114C0.861675 2.15499 0.701967 3.22414 0.938308 4.24147C1.17465 5.2588 1.78932 6.14805 2.6575 6.72864C2.00692 6.70654 1.37065 6.53184 0.8 6.21864V6.27489C0.801122 7.22174 1.12913 8.13917 1.72859 8.87209C2.32805 9.60501 3.16218 10.1085 4.09 10.2974C3.73783 10.3944 3.37404 10.4428 3.00875 10.4411C2.75123 10.4419 2.49423 10.4181 2.24125 10.3699C2.50348 11.185 3.01409 11.8976 3.70156 12.408C4.38903 12.9184 5.21892 13.201 6.075 13.2161C4.62069 14.3584 2.82425 14.9779 0.975 14.9749C0.649151 14.9763 0.323529 14.9575 0 14.9186C1.87689 16.1152 4.05662 16.7506 6.2825 16.7499Z" fill="white"/>
</svg>
