<svg width="23" height="23" viewBox="0 0 23 23" fill="none" xmlns="http://www.w3.org/2000/svg">
<path d="M20.3197 6.7541C19.8115 5.63115 19.082 4.62295 18.1558 3.7541C17.2295 2.89344 16.1558 2.21311 14.959 1.7377C13.7213 1.2459 12.4099 1 11.0574 1C9.70493 1 8.39345 1.2459 7.15575 1.7377C5.95902 2.21311 4.88525 2.88525 3.95902 3.7541C3.03279 4.62295 2.30329 5.63115 1.7951 6.7541C1.27051 7.91803 1 9.16393 1 10.4426C1 12.6803 1.83606 14.8279 3.36884 16.5328L2.54917 21L6.90984 19.0574C8.21312 19.6148 9.59837 19.8934 11.0492 19.8934C12.4016 19.8934 13.7131 19.6475 14.9508 19.1557C16.1476 18.6803 17.2213 18.0082 18.1476 17.1393C19.0738 16.2705 19.8033 15.2623 20.3115 14.1393C20.8361 12.9754 21.1066 11.7295 21.1066 10.4508C21.1148 9.16393 20.8443 7.92623 20.3197 6.7541Z" stroke="white" stroke-width="2"/>
<path d="M15.0046 12.148C14.5783 11.9349 14.2669 11.8037 14.0456 11.7218C13.9062 11.6726 13.5783 11.5251 13.4636 11.6152C13.1029 11.9103 12.7177 12.7464 12.3078 12.9021C11.2915 12.7054 10.3488 12.0087 9.61113 11.2955C9.28326 10.9841 8.6767 10.0988 8.54556 9.86112C8.52097 9.61522 8.96357 9.28735 9.06193 9.09883C9.57013 8.52506 9.1849 8.1644 9.11933 7.9267C9.00457 7.6808 8.80786 7.23817 8.63573 6.87752C8.48819 6.63981 8.45537 6.28735 8.19307 6.15621C7.07832 5.58244 6.43901 6.72998 6.17671 7.32834C4.59475 11.1398 14.1029 18.3939 16.0374 13.3939C16.1357 12.9595 16.0947 12.7956 15.9472 12.5988C15.6521 12.3939 15.3078 12.3037 15.0046 12.148Z" stroke="white" stroke-width="2"/>
</svg>
